<svg xmlns="http://www.w3.org/2000/svg" xmlns:xlink="http://www.w3.org/1999/xlink" width="613.579" height="573.878" viewBox="0 0 613.579 573.878">
  <defs>
    <clipPath id="clip-path">
      <path id="Path_11520" data-name="Path 11520" d="M135.37,457.473q-4.853-1.653-9.661-3.44c-26.69-9.923-50.333-30.6-65.575-58.157C41.7,362.548,34.064,320.859,40.994,281.788c.073-.408.148-.816.223-1.224-2.12-11.657-12.9-76.464,22.317-134.719C95.949,92.225,164.356,58.8,211.2,108.423c19.886,21.071,24.826,47.938,26.2,57.724,6.156-10.478,22.692-35.477,52.288-47.537C341.278,97.589,386.382,134.7,391,138.633c1.076-4.108,5.35-18.642,18.024-27.654,19.079-13.568,39.663-2.161,41.175-1.287.409.236,11.488-9.131,13.086-10.088a65.177,65.177,0,0,1,17.539-7.316c24.02-6.036,51.708,4.8,66.414,28.746,6.912,11.257,10.062,25.67,7.208,39.273-3.217,15.341-12.7,27.654-17.076,42.49a80.045,80.045,0,0,0-.321,42.841c1.814,6.862,5.047,19.585,10.269,24.144a115.517,115.517,0,0,1,36.471,62.845c11.485,53.818-14.547,111.6-59.325,124.138-75.161,21.052-170.08,24.585-221.008,24.764C247.082,481.725,189.68,475.971,135.37,457.473Z" transform="translate(-38.009 -84.134)" fill="none"/>
    </clipPath>
  </defs>
  <g id="Group_11131" data-name="Group 11131" transform="translate(-18.923 -20.578)">
    <g id="Group_11107" data-name="Group 11107" transform="translate(18.922 20.578)" opacity="0.3" style="mix-blend-mode: multiply;isolation: isolate">
      <path id="Path_11387" data-name="Path 11387" d="M473.946,73.567l.89.176c-4.21,11.224-14.6,15.023-27.4,15.509-27.022,1.024-52.967-10.675-79.835-14.478a136.07,136.07,0,0,0-73.5,9.956c-15.162,6.712-28.674,16.187-41.5,26.23A454.819,454.819,0,0,0,149.6,223.967c-11.674,18.286-22.342,37.816-39.758,51.5s-44.024,20.005-63.741,8.4C32.89,276.1,25.356,261.928,21.886,247.8c-3.633-14.793-3.541-30.115-1.78-45.077,6.558-55.725,37.185-108.373,84.4-142.093S215.118,12.942,274.252,24.664c38.207,7.572,73.866,25.16,112.272,31.654a198.174,198.174,0,0,0,56.508,1.387c7.226-.867,14.805-2.1,21.688.367S477.459,67.658,473.946,73.567Z" transform="translate(-18.922 -20.578)" fill="#d5f0f9"/>
      <path id="Path_11388" data-name="Path 11388" d="M343.2,476.153c13.964,1.972,28.517,2.054,41.309-8.953s23.348-35.782,22.339-62.78c-.846-22.645-9.551-41.95-19.871-52.8s-22.153-14.727-33.74-18.445q-24.851-7.978-49.7-15.954c-15.53-4.983-31.5-9.958-46.9-3.589S226.347,340.407,222.692,370C211.679,459.126,316.662,472.4,343.2,476.153Z" transform="translate(46.052 72.274)" fill="#d5f0f9"/>
      <path id="Path_11389" data-name="Path 11389" d="M412.857,81.986c3.772,10.672,11.31,19.782,20.139,26.89,10.236,8.24,23.023,14.18,35.89,13.126,9.659-.791,18.542-5.435,26.222-11.218,3.748-2.822,7.358-6.038,9.5-10.24,3.011-5.912,2.749-13,2.009-19.695-2.85-25.815-21.552-67.539-54.4-57.884C427.4,30.255,403.094,54.369,412.857,81.986Z" transform="translate(106.48 -20.27)" fill="#d5f0f9"/>
      <path id="Path_11390" data-name="Path 11390" d="M51.006,432.215c3.772,10.672,11.31,19.782,20.139,26.891,10.236,8.24,23.023,14.178,35.89,13.125,9.659-.789,18.543-5.434,26.222-11.217,3.748-2.824,7.358-6.04,9.5-10.24,3.013-5.911,2.75-13,2.011-19.7-2.85-25.816-21.552-67.539-54.4-57.884C65.553,380.486,41.243,404.6,51.006,432.215Z" transform="translate(-9.359 91.849)" fill="#c7e0e8"/>
      <path id="Path_11391" data-name="Path 11391" d="M394.26,465.492q1.537,1.172,3.224,2.261c16.739,10.781,42.117,11.6,62.035,8.038,22.739-4.066,48.492-21.605,50.375-52.876,1.778-29.53-19.08-52.375-39.423-62.529-19.445-9.706-41.381-13.146-60.74-3.123s-35.14,35.679-34.715,63.995C375.262,437.6,379.622,454.316,394.26,465.492Z" transform="translate(95.07 85.271)" fill="#d5f0f9"/>
      <path id="Path_11392" data-name="Path 11392" d="M38.577,387.788q.909.816,1.91,1.574c9.915,7.5,24.95,8.069,36.75,5.591,13.471-2.828,28.727-15.028,29.843-36.78,1.053-20.541-11.3-36.433-23.354-43.5-11.519-6.75-24.515-9.143-35.983-2.172s-20.818,24.818-20.566,44.515C27.321,368.387,29.9,380.013,38.577,387.788Z" transform="translate(-16.282 71.531)" fill="#c7e0e8"/>
      <ellipse id="Ellipse_429" data-name="Ellipse 429" cx="11.529" cy="10.919" rx="11.529" ry="10.919" transform="translate(441.437 552.039)" fill="#c7e0e8"/>
      <ellipse id="Ellipse_430" data-name="Ellipse 430" cx="203.602" cy="180.116" rx="203.602" ry="180.116" transform="translate(200.156 86.368)" fill="#c7e0e8"/>
    </g>
    <g id="Group_11108" data-name="Group 11108" transform="translate(22.719 25.863)">
      <path id="Path_11393" data-name="Path 11393" d="M135.37,457.473q-4.853-1.653-9.661-3.44c-26.69-9.923-50.333-30.6-65.575-58.157C41.7,362.548,34.064,320.859,40.994,281.788c.073-.408.148-.816.223-1.224-2.12-11.657-12.9-76.464,22.317-134.719C95.949,92.225,164.356,58.8,211.2,108.423c19.886,21.071,24.826,47.938,26.2,57.724,6.156-10.478,22.692-35.477,52.288-47.537C341.278,97.589,386.382,134.7,391,138.633c1.076-4.108,5.35-18.642,18.024-27.654,19.079-13.568,39.663-2.161,41.175-1.287.409.236,11.488-9.131,13.086-10.088a65.177,65.177,0,0,1,17.539-7.316c24.02-6.036,51.708,4.8,66.414,28.746,6.912,11.257,10.062,25.67,7.208,39.273-3.217,15.341-12.7,27.654-17.076,42.49a80.045,80.045,0,0,0-.321,42.841c1.814,6.862,5.047,19.585,10.269,24.144a115.517,115.517,0,0,1,36.471,62.845c11.485,53.818-14.547,111.6-59.325,124.138-75.161,21.052-170.08,24.585-221.008,24.764C247.082,481.725,189.68,475.971,135.37,457.473Z" transform="translate(-16.609 -5.517)" fill="#3fa0c6"/>
      <path id="Path_11394" data-name="Path 11394" d="M139.756,425.408q-4.434-1.39-8.829-2.886a116.067,116.067,0,0,1-60.269-47.83c-17.1-27.22-24.449-61.113-18.506-92.739q.1-.5.191-.991C50.3,271.485,39.877,218.806,71.4,171.9c29.015-43.176,91-69.614,134.124-28.89,18.309,17.29,23.061,39.134,24.407,47.086,5.508-8.44,20.331-28.554,47.171-38.043,46.788-16.54,88.215,14.014,92.454,17.25.941-3.323,4.7-15.069,16.154-22.256,17.247-10.816,36.1-1.358,37.488-.634.374.2,10.375-7.294,11.822-8.054a62.205,62.205,0,0,1,15.9-5.761c21.818-4.657,47.137,4.407,60.755,23.98,6.4,9.2,9.4,20.923,6.935,31.929-2.787,12.413-11.309,22.308-15.151,34.3a58.1,58.1,0,0,0,.111,34.75c1.717,5.584,4.78,15.939,9.58,19.688,6.808,5.319,26.484,22.121,33.807,51.342,10.966,43.77-12.2,90.383-52.859,100.112-68.252,16.331-154.662,18.255-201.042,17.893C241.723,446.192,189.392,440.954,139.756,425.408Z" transform="translate(-13.071 6.851)" fill="#46b1dd"/>
      <ellipse id="Ellipse_431" data-name="Ellipse 431" cx="34.215" cy="35.137" rx="34.215" ry="35.137" transform="translate(533.428 187.68)" fill="#3fa0c6"/>
      <ellipse id="Ellipse_432" data-name="Ellipse 432" cx="11.2" cy="13.135" rx="11.2" ry="13.135" transform="translate(547.512 152.758)" fill="#74acc2"/>
      <path id="Path_11395" data-name="Path 11395" d="M453.55,235.343c-.474,5.777,3.134,10.911,8.061,11.468s9.3-3.675,9.777-9.452-3.134-10.911-8.059-11.468S454.025,229.566,453.55,235.343Z" transform="translate(116.404 39.847)" fill="#3fa0c6"/>
      <path id="Path_11396" data-name="Path 11396" d="M442.014,426.736c-.475,5.777,3.134,10.911,8.059,11.467s9.3-3.675,9.778-9.452-3.134-10.911-8.059-11.467S442.488,420.959,442.014,426.736Z" transform="translate(112.711 101.118)" fill="#3fa0c6"/>
      <path id="Path_11397" data-name="Path 11397" d="M327.444,91.136c-.931,11.534-10.685,19.881-21.789,18.646S286.3,98.192,287.234,86.658s10.685-19.881,21.789-18.646S328.374,79.6,327.444,91.136Z" transform="translate(63.152 -10.717)" fill="#3fa0c6"/>
      <path id="Path_11398" data-name="Path 11398" d="M356.384,63.581A9.929,9.929,0,0,1,345.49,72.9a10.685,10.685,0,0,1-9.211-11.562,9.928,9.928,0,0,1,10.894-9.323A10.685,10.685,0,0,1,356.384,63.581Z" transform="translate(78.865 -15.817)" fill="#3fa0c6"/>
      <ellipse id="Ellipse_433" data-name="Ellipse 433" cx="39.577" cy="43.107" rx="39.577" ry="43.107" transform="matrix(0.967, -0.255, 0.255, 0.967, 0, 20.218)" fill="#3fa0c6"/>
      <path id="Path_11399" data-name="Path 11399" d="M108.662,66.213C104.55,68.992,98.982,67.555,96.225,63s-1.658-10.492,2.455-13.271,9.68-1.344,12.437,3.207S112.775,63.434,108.662,66.213Z" transform="translate(1.542 -16.984)" fill="#3fa0c6"/>
      <path id="Path_11400" data-name="Path 11400" d="M249.006,437.527c.477,14.256-11.216,25.922-26.119,26.057s-27.369-11.315-27.845-25.572,11.216-25.922,26.117-26.057S248.529,423.269,249.006,437.527Z" transform="translate(33.657 99.427)" fill="#3fa0c6"/>
      <path id="Path_11401" data-name="Path 11401" d="M232.849,406.558a5.774,5.774,0,0,1-5.88,5.865,6.128,6.128,0,0,1-6.269-5.756,5.777,5.777,0,0,1,5.881-5.867A6.126,6.126,0,0,1,232.849,406.558Z" transform="translate(41.875 95.857)" fill="#3fa0c6"/>
      <path id="Path_11402" data-name="Path 11402" d="M167.766,404.224c19.386,3.415,39.678,3.218,57.973,10.347,3.743,1.459,7.475,3.3,10.066,6.265,5.172,5.925,4.355,15.068,0,21.443s-11.484,10.488-18.663,13.815c-31.111,14.42-68.029,17.7-101.484,8.176s-63.014-31.939-79.548-61.354c-5.118-9.1-9.075-19.113-8.937-29.382s4.973-20.83,14.173-26.041c16.364-9.267,32.424,1.888,43.369,12.987a155.233,155.233,0,0,0,49.7,33.819A153.19,153.19,0,0,0,167.766,404.224Z" transform="translate(-20.078 77.688)" fill="#3fa0c6"/>
      <path id="Path_11403" data-name="Path 11403" d="M437.46,386.052c11.013-5.958,21.092-14.109,32.983-17.748a15.576,15.576,0,0,1,7.442-.813c4.862.957,7.963,5.923,8.23,10.887s-1.721,9.881-4.037,14.42c-10.036,19.665-27.253,35.975-47.649,44.414s-43.791,8.784-63.356.409c-6.055-2.591-11.876-6.1-15.748-11.372s-5.506-12.549-2.9-18.846c4.632-11.2,16.95-11.9,26.688-10.613a96.307,96.307,0,0,0,58.348-10.739Z" transform="translate(83.639 85.136)" fill="#3fa0c6"/>
    </g>
    <g id="Group_11130" data-name="Group 11130" transform="translate(44.119 104.48)">
      <g id="Group_11129" data-name="Group 11129" clip-path="url(#clip-path)">
        <g id="Group_11109" data-name="Group 11109" transform="translate(266.041 209.578)">
          <path id="Path_11404" data-name="Path 11404" d="M239.536,285.9s69.8-66.9,154.765-33.826l-10.252,25.357s-97.631,2.244-113.308,31.195Z" transform="translate(-239.536 -242.89)" fill="#6aa181"/>
          <path id="Path_11405" data-name="Path 11405" d="M349.252,273.3A86.381,86.381,0,0,1,362.4,274.87c2.838.564,5.761,1.27,8.585.636s5.513-3.1,5.344-6.063a3.442,3.442,0,0,0,.813-5.237c1.366-.285,1.97-2.111,1.5-3.457a6.692,6.692,0,0,0-2.815-3.075,39.387,39.387,0,0,0-17.515-6.554Z" transform="translate(-204.413 -240.256)" fill="#edb698"/>
        </g>
        <g id="Group_11115" data-name="Group 11115" transform="translate(357.068 78.676)">
          <g id="Group_11111" data-name="Group 11111" transform="translate(45.138)">
            <path id="Path_11406" data-name="Path 11406" d="M398.075,165.811a32.02,32.02,0,0,0-4.268-3.135,28.7,28.7,0,0,0-29.026-.694C350,170.1,341.237,193.706,352.136,208.987c8.655,12.135,24.709,14.586,37.818,11.555,16.113-3.727,23.006-23.343,18.206-39.291A33.5,33.5,0,0,0,398.075,165.811Z" transform="translate(-341.215 -139.042)" fill="#d79a73"/>
            <g id="Group_11110" data-name="Group 11110" transform="translate(13.993 42.98)">
              <path id="Path_11407" data-name="Path 11407" d="M378.073,180.437c-.092,1.291.5,2.393,1.314,2.462s1.555-.921,1.647-2.213-.5-2.393-1.314-2.463S378.166,179.146,378.073,180.437Z" transform="translate(-345.348 -175.67)"/>
              <path id="Path_11408" data-name="Path 11408" d="M361.537,178.5c-.091,1.291.5,2.393,1.314,2.463s1.556-.923,1.649-2.214-.5-2.393-1.314-2.462S361.63,177.213,361.537,178.5Z" transform="translate(-350.641 -176.288)"/>
              <path id="Path_11409" data-name="Path 11409" d="M371.395,177.155a16.016,16.016,0,0,0-.807,2.165,16.62,16.62,0,0,0-.412,2.734l-.318,3.409" transform="translate(-347.974 -176.011)" fill="none" stroke="#eaab88" stroke-miterlimit="10" stroke-width="0.75" style="mix-blend-mode: multiply;isolation: isolate"/>
              <path id="Path_11410" data-name="Path 11410" d="M377.99,187.494a5.947,5.947,0,0,1-3.413,1.976,8.9,8.9,0,0,1-5.281-.086,5.836,5.836,0,0,1-3.645-3.933" transform="translate(-349.321 -173.355)" fill="none" stroke="#000" stroke-miterlimit="10" stroke-width="1"/>
              <path id="Path_11411" data-name="Path 11411" d="M380.175,189.526a4.992,4.992,0,0,0,5.493,4.585,5.253,5.253,0,0,0,4.222-5.963,4.992,4.992,0,0,0-5.492-4.585A5.252,5.252,0,0,0,380.175,189.526Z" transform="translate(-344.685 -173.974)" fill="#edb698" style="mix-blend-mode: multiply;isolation: isolate"/>
              <path id="Path_11412" data-name="Path 11412" d="M353.323,186.739a4.992,4.992,0,0,0,5.492,4.585,5.252,5.252,0,0,0,4.223-5.963,4.99,4.99,0,0,0-5.492-4.585A5.252,5.252,0,0,0,353.323,186.739Z" transform="translate(-353.281 -174.866)" fill="#edb698" style="mix-blend-mode: multiply;isolation: isolate"/>
            </g>
            <path id="Path_11413" data-name="Path 11413" d="M410.528,177.675c-2.35-9.566-5.658-19.212-12-26.323-3.339-3.74-9.725-9.875-14.907-6.774-3.892,2.329-.809,9.232,1.369,11.728a27.733,27.733,0,0,0-13.358-8.8c-4.128-1.113-10.321.15-8.47,6.425a8.66,8.66,0,0,0,4.9,5.246,23.054,23.054,0,0,0-13.28-4.465,13.049,13.049,0,0,0-6.271,1.3c-4.051,2.141-6.331,7.4-5.723,12.246a14.825,14.825,0,0,0,7.918,11.137,16.95,16.95,0,0,0,13.192.566c-1.481.52-1.935,2.77-1.176,4.246a5.637,5.637,0,0,0,3.831,2.63c4.6,1.134,9.419-.638,13.509-3.195a29.453,29.453,0,0,0,9.18-8.708,8.231,8.231,0,0,0,3.324,8.924,6.889,6.889,0,0,0,8.742-1.6,10.023,10.023,0,0,0,.859,7.391c1.31,2.125,3.983,3.339,6.149,2.333a8.686,8.686,0,0,0-.194,4.486c.38,1.18,2.115,2.828,3.224,1.747,1.04-1.015,1.023-5.134,1.075-6.55A51.128,51.128,0,0,0,410.528,177.675Z" transform="translate(-342.681 -143.731)" fill="#945b79"/>
            <path id="Path_11414" data-name="Path 11414" d="M401.641,188.657a5.158,5.158,0,0,1-5.7,4.71,5.437,5.437,0,0,1-4.339-6.189,5.158,5.158,0,0,1,5.7-4.712A5.438,5.438,0,0,1,401.641,188.657Z" transform="translate(-327.036 -131.347)" fill="#d79a73"/>
            <path id="Path_11415" data-name="Path 11415" d="M397.355,184.756a7.378,7.378,0,0,0-4.327,4.693" transform="translate(-326.564 -130.598)" fill="none" stroke="#eaab88" stroke-miterlimit="10" stroke-width="0.75" style="mix-blend-mode: multiply;isolation: isolate"/>
          </g>
          <path id="Path_11416" data-name="Path 11416" d="M394.631,185.935a5.477,5.477,0,0,1,1.448,3.333" transform="translate(-280.913 -130.221)" fill="none" stroke="#eaab88" stroke-miterlimit="10" stroke-width="0.75" style="mix-blend-mode: multiply;isolation: isolate"/>
          <path id="Path_11417" data-name="Path 11417" d="M340.418,319.326s-24.124,35.551-31.929,85.69c0,0,116.052-1.541,138.2-33.757,0,0-7.865-28.215-22.422-42.879C424.264,328.379,379.441,340.687,340.418,319.326Z" transform="translate(-308.489 -87.518)" fill="#262d74"/>
          <path id="Path_11418" data-name="Path 11418" d="M360.187,389.751l2.78-46.214-13.073,48.537S357.651,392.839,360.187,389.751Z" transform="translate(-295.234 -79.768)" fill="#a04c4a"/>
          <g id="Group_11112" data-name="Group 11112" transform="translate(30.09 93.89)">
            <path id="Path_11419" data-name="Path 11419" d="M333.121,352.771l-1.832-99.891c-.275-14.954,8.079-28.579,20.972-33.851l.319-.131c18.008-7.232,43.841-4.411,60.6,5.63a59.461,59.461,0,0,1,9.349,6.972c11.842,10.733,16.912,27.921,13.234,44.185-6.852,30.3-18.8,86.14-18.8,86.14S378.823,375.646,333.121,352.771Z" transform="translate(-331.282 -214.853)" fill="#ee6382"/>
            <path id="Path_11420" data-name="Path 11420" d="M356.5,223.72c.259,8.3,6.43,15.927,13.976,17.279s15.647-3.721,18.348-11.49" transform="translate(-323.21 -212.015)" fill="none" stroke="#4a6e99" stroke-miterlimit="10" stroke-width="1" style="mix-blend-mode: multiply;isolation: isolate"/>
          </g>
          <g id="Group_11113" data-name="Group 11113" transform="translate(106.383 100.625)">
            <path id="Path_11421" data-name="Path 11421" d="M389.074,219.955s57.8,15.13,66.828,64.344l-42.331,6.3S408.381,237.926,389.074,219.955Z" transform="translate(-389.074 -219.955)" fill="#ee6382"/>
            <path id="Path_11422" data-name="Path 11422" d="M421.552,273.066s16.907,50.018-18.779,112.159c0,0-4.25,5.266,2.285,7.217,0,0-2.66,6.836,4.419,4.714,0,0,1.3,7.824,7.5,2.339,0,0,51.1-32.895,30.671-130.314Z" transform="translate(-385.123 -204.196)" fill="#d79a73"/>
          </g>
          <g id="Group_11114" data-name="Group 11114" transform="translate(67.456 80.464)">
            <path id="Path_11423" data-name="Path 11423" d="M362.382,204.683c-.082-.029-2.795,22.364-2.795,22.364,1.228,5.842,5.575,10.312,10.945,11.277,5.644,1.014,11.34-2.038,14.1-7.589q2.063-12.917,4.125-25.836Z" transform="translate(-359.587 -204.683)" fill="#d79a73"/>
            <path id="Path_11424" data-name="Path 11424" d="M361.7,204.683s11.023,5.171,26.375.215l-1.674,10.49S369.689,216.583,361.7,204.683Z" transform="translate(-358.909 -204.683)" fill="#edb698" style="mix-blend-mode: multiply;isolation: isolate"/>
          </g>
        </g>
        <g id="Group_11116" data-name="Group 11116" transform="translate(274.243 85.097)">
          <path id="Path_11425" data-name="Path 11425" d="M341.647,230.08s-47.948-11.353-77.1-77.391c0,0-1.812-6.719-6.836-1.78,0,0-3.885-6.106-6.036,1.518,0,0-6.778-3.01-5.842,5.612,0,0-1.852,64.462,84.826,98.029Z" transform="translate(-245.749 -148.595)" fill="#d79a73"/>
          <path id="Path_11426" data-name="Path 11426" d="M370.772,221.609s-26.139-8.568-46.872-24.471c0,0-17.387,35.015-16.616,61.645l32,16.355S344.783,238.644,370.772,221.609Z" transform="translate(-226.058 -133.055)" fill="#ee6382"/>
        </g>
        <g id="Group_11117" data-name="Group 11117" transform="translate(142.475 192.899)">
          <path id="Path_11427" data-name="Path 11427" d="M289.777,255.86s-25.046,8.424-42.442,4.058c0,0,4.059,28-8,43.815a86.012,86.012,0,0,0,51.783,1.213Z" transform="translate(-116.035 -222.059)" fill="#fdf53f"/>
          <path id="Path_11428" data-name="Path 11428" d="M246,300.81a48.525,48.525,0,0,0,2.081-5.262c.722-2.193,1.288-4.437,1.853-6.677,2.209-8.756,4.436-17.827,3-26.751" transform="translate(-113.901 -220.055)" fill="none" stroke="#d8a821" stroke-miterlimit="10" stroke-width="1"/>
          <path id="Path_11429" data-name="Path 11429" d="M270.3,308.905s-86.916-34.313-122.093-63.911c0,0-4.425-2.05-.923-5.414,0,0-2.178-5.389,3.975-5.789,0,0-1.263-3.9,4.471-3.508,0,0,88.831,50.22,122.025,43.69C277.754,273.974,279.64,297.81,270.3,308.905Z" transform="translate(-145.934 -230.255)" fill="#d79a73"/>
        </g>
        <g id="Group_11120" data-name="Group 11120" transform="translate(156.554 115.374)">
          <path id="Path_11430" data-name="Path 11430" d="M220.142,257.677c-14.76.816-26.492,13.518-27.06,29.332a289.642,289.642,0,0,1-5.3,45.79,284.06,284.06,0,0,1-31.18,84.464l147.354,10.795c-5.089-24.746-.112-121.981,1.493-133.568,2.318-16.726-14.444-31.682-30.074-34.1a266,266,0,0,0-29.069-2.871C237.056,257.12,228.31,257.226,220.142,257.677Z" transform="translate(-156.599 -144.081)" fill="#3840f7"/>
          <path id="Path_11431" data-name="Path 11431" d="M216.541,244.959l-1.933,21.477c2.632,7.671,9.4,12.731,16.748,12.615,6.458-.1,12.407-4.194,15.391-10.548l-.661-18.057S225.181,252.537,216.541,244.959Z" transform="translate(-138.029 -148.023)" fill="#edb698"/>
          <g id="Group_11119" data-name="Group 11119" transform="translate(55.152)">
            <path id="Path_11432" data-name="Path 11432" d="M263.445,217.008c-5.079-13.681-18.5-22.533-31.663-22.165a26.141,26.141,0,0,0-17.538,7.43c-5.762,5.571-8.793,13.715-10.071,21.922-1.467,9.415-.422,19.213,4.9,26.946,7.982,11.585,23.778,16.421,36.16,11.873,14.685-5.394,23.078-21.535,20.243-38.351A42.169,42.169,0,0,0,263.445,217.008Z" transform="translate(-196.714 -164.07)" fill="#edb698"/>
            <path id="Path_11433" data-name="Path 11433" d="M265.989,223.238a14.987,14.987,0,0,1-7.694,6.337,9.829,9.829,0,0,1-8.987-1.484c-2.515-2-3.637-5.357-5.974-7.545-5.1-4.772-13.449-4.329-18.671-.011-4.6,3.8-8.993,10.943-15.625,7.335-1.574-.855-5.78-3.648-5.407-6.009-2.037,12.928,3.383,27.323,14.071,34.109,6.284,3.991,13.274,4.878,20.445,4.953,14.024.149,27.526-9.752,28.253-25.523.085-1.842,0-3.674-.079-5.513-.09-2-.76-4.553-.385-6.532A.307.307,0,0,1,265.989,223.238Z" transform="translate(-196.83 -156.932)" fill="#8e6447"/>
            <g id="Group_11118" data-name="Group 11118" transform="translate(11.331 49.023)">
              <path id="Path_11434" data-name="Path 11434" d="M235.584,213.616c-.053,1.485.676,2.721,1.63,2.76s1.769-1.131,1.823-2.617-.676-2.721-1.629-2.76S235.638,212.131,235.584,213.616Z" transform="translate(-197.797 -207.918)"/>
              <path id="Path_11435" data-name="Path 11435" d="M216.279,212.2c-.054,1.485.676,2.721,1.629,2.76s1.77-1.131,1.824-2.616-.676-2.721-1.629-2.76S216.333,210.716,216.279,212.2Z" transform="translate(-203.978 -208.371)"/>
              <path id="Path_11436" data-name="Path 11436" d="M228.052,208.665a18.574,18.574,0,0,0-.849,2.523,18.793,18.793,0,0,0-.363,3.154l-.23,3.925" transform="translate(-200.669 -208.665)" fill="none" stroke="#eaab88" stroke-miterlimit="10" stroke-width="0.75" style="mix-blend-mode: multiply;isolation: isolate"/>
              <path id="Path_11437" data-name="Path 11437" d="M235.805,221.694a7,7,0,0,1-3.886,2.432,10.493,10.493,0,0,1-6.141.156,6.684,6.684,0,0,1-4.4-4.333" transform="translate(-202.345 -205.053)" fill="none" stroke="#000" stroke-miterlimit="10" stroke-width="1"/>
              <path id="Path_11438" data-name="Path 11438" d="M238.377,223.978a5.752,5.752,0,0,0,6.577,4.991,6.074,6.074,0,0,0,4.661-7.042,5.752,5.752,0,0,0-6.576-4.993A6.077,6.077,0,0,0,238.377,223.978Z" transform="translate(-196.929 -206.045)" fill="#edb698" style="mix-blend-mode: multiply;isolation: isolate"/>
              <path id="Path_11439" data-name="Path 11439" d="M207.042,222.079a5.752,5.752,0,0,0,6.577,4.991,6.074,6.074,0,0,0,4.661-7.042,5.752,5.752,0,0,0-6.577-4.991A6.075,6.075,0,0,0,207.042,222.079Z" transform="translate(-206.96 -206.653)" fill="#edb698" style="mix-blend-mode: multiply;isolation: isolate"/>
            </g>
            <path id="Path_11440" data-name="Path 11440" d="M211.445,229.178a30.839,30.839,0,0,0,2.755,20.466" transform="translate(-194.405 -153.075)" fill="none" stroke="#8e6447" stroke-miterlimit="10" stroke-width="1" opacity="0.5" style="mix-blend-mode: multiply;isolation: isolate"/>
            <path id="Path_11441" data-name="Path 11441" d="M218.881,226.188a113.774,113.774,0,0,0-1.189,14.606,37.885,37.885,0,0,0,2.545,14.312" transform="translate(-192.193 -154.032)" fill="none" stroke="#8e6447" stroke-miterlimit="10" stroke-width="1" opacity="0.5" style="mix-blend-mode: multiply;isolation: isolate"/>
            <path id="Path_11442" data-name="Path 11442" d="M226.943,226.276a85.821,85.821,0,0,1-.826,27.247" transform="translate(-189.496 -154.004)" fill="none" stroke="#8e6447" stroke-miterlimit="10" stroke-width="1" opacity="0.5" style="mix-blend-mode: multiply;isolation: isolate"/>
            <path id="Path_11443" data-name="Path 11443" d="M233.849,227.94a115.717,115.717,0,0,1-.5,27.174" transform="translate(-187.182 -153.472)" fill="none" stroke="#8e6447" stroke-miterlimit="10" stroke-width="1" opacity="0.5" style="mix-blend-mode: multiply;isolation: isolate"/>
            <path id="Path_11444" data-name="Path 11444" d="M242.389,229.97a21.841,21.841,0,0,1,.948,6.7c-.081,5.214-2,10.169-3.9,14.976" transform="translate(-185.231 -152.822)" fill="none" stroke="#8e6447" stroke-miterlimit="10" stroke-width="1" opacity="0.5" style="mix-blend-mode: multiply;isolation: isolate"/>
            <path id="Path_11445" data-name="Path 11445" d="M268.349,242.908a84.6,84.6,0,0,0,3.592-21.868c.194-6.149-.454-12.792-4.214-17.444-3.86-4.776-10.026-6.342-15.415-8.911a48.779,48.779,0,0,1-8.792-5.489,26.77,26.77,0,0,1-7.4-8.041,36.8,36.8,0,0,1-3.142-9.625c-5.654,3.9-8.079,12.383-5.431,19a43.836,43.836,0,0,1-6.693-10.173,9.666,9.666,0,0,0-2.607,6.965,9.562,9.562,0,0,0,3.112,6.723,28.489,28.489,0,0,1-15.9-11.769,8.917,8.917,0,0,0-2.392-2.947.821.821,0,0,0-.582-.176.97.97,0,0,0-.548.486,23.343,23.343,0,0,0-2.92,17.91,26.157,26.157,0,0,0,9.971,14.923c-2.022-.048-4.624-.4-6.087-1.894a7.654,7.654,0,0,0,.259,5.982A6.8,6.8,0,0,0,207.6,220.2a16.972,16.972,0,0,0-3.4,8.748,31.305,31.305,0,0,0,.871,9.448,51.6,51.6,0,0,1,1.7-5.8c2.12-5.414,4.449-10.833,8-15.306a30.165,30.165,0,0,1,11.451-8.884c2.272.661,4.461,1.336,6.75,1.925a25.48,25.48,0,0,0,14.143-.432c3.526.931,6.478,3.636,8.805,6.622a53.948,53.948,0,0,1,5.7,9.917C264.142,231.662,266.817,237.259,268.349,242.908Z" transform="translate(-198.377 -171.53)" fill="#8e6447"/>
            <path id="Path_11446" data-name="Path 11446" d="M203.839,189.674a24.094,24.094,0,0,0,12.686,13.576" transform="translate(-196.628 -165.722)" fill="none" stroke="#8e6447" stroke-miterlimit="10" stroke-width="1" opacity="0.5" style="mix-blend-mode: multiply;isolation: isolate"/>
            <path id="Path_11447" data-name="Path 11447" d="M210.4,191.051a49.39,49.39,0,0,0,6.182,5.234,17.668,17.668,0,0,0,7.294,3.049" transform="translate(-194.526 -165.281)" fill="none" stroke="#8e6447" stroke-miterlimit="10" stroke-width="1" opacity="0.5" style="mix-blend-mode: multiply;isolation: isolate"/>
            <path id="Path_11448" data-name="Path 11448" d="M218.591,189.852c2.932,2.29,5.034,5.922,8.457,7.213" transform="translate(-191.905 -165.665)" fill="none" stroke="#8e6447" stroke-miterlimit="10" stroke-width="1" opacity="0.5" style="mix-blend-mode: multiply;isolation: isolate"/>
            <path id="Path_11449" data-name="Path 11449" d="M224.893,184.458c2.557,5.633,5.331,11.506,10.149,15.057" transform="translate(-189.888 -167.391)" fill="none" stroke="#8e6447" stroke-miterlimit="10" stroke-width="1" opacity="0.5" style="mix-blend-mode: multiply;isolation: isolate"/>
            <path id="Path_11450" data-name="Path 11450" d="M232.964,190.377a46.151,46.151,0,0,0,8.42,11.164" transform="translate(-187.304 -165.497)" fill="none" stroke="#8e6447" stroke-miterlimit="10" stroke-width="1" opacity="0.5" style="mix-blend-mode: multiply;isolation: isolate"/>
            <path id="Path_11451" data-name="Path 11451" d="M259.939,224.661a5.882,5.882,0,0,1-6.289,5.55,6.071,6.071,0,0,1-5.184-6.733,5.883,5.883,0,0,1,6.289-5.55A6.071,6.071,0,0,1,259.939,224.661Z" transform="translate(-182.35 -156.686)" fill="#edb698"/>
            <path id="Path_11452" data-name="Path 11452" d="M255.162,220.761c0,.091.152-.028.087-.088s-.165-.008-.235.046a11.4,11.4,0,0,0-3.6,4.85" transform="translate(-181.397 -155.807)" fill="none" stroke="#eaab88" stroke-miterlimit="10" stroke-width="0.75" style="mix-blend-mode: multiply;isolation: isolate"/>
            <path id="Path_11453" data-name="Path 11453" d="M253.036,222.073a9.263,9.263,0,0,1,.718,4" transform="translate(-180.878 -155.35)" fill="none" stroke="#eaab88" stroke-miterlimit="10" stroke-width="0.75" style="mix-blend-mode: multiply;isolation: isolate"/>
          </g>
        </g>
        <g id="Group_11121" data-name="Group 11121" transform="translate(47.258 217.161)">
          <path id="Path_11454" data-name="Path 11454" d="M245.027,280.534s-76.356-58.867-157.4-16.665l12.83,24.087s97.307-8.47,115.9,18.6Z" transform="translate(-69.382 -248.634)" fill="#6aa181"/>
          <path id="Path_11455" data-name="Path 11455" d="M104.4,282.423A86.76,86.76,0,0,0,91.5,285.43c-2.764.871-5.6,1.9-8.47,1.575s-5.8-2.478-5.945-5.443a3.436,3.436,0,0,1-1.352-5.119c-1.387-.133-2.178-1.881-1.851-3.273a6.763,6.763,0,0,1,2.478-3.365,39.634,39.634,0,0,1,16.735-8.437Z" transform="translate(-73.807 -244.557)" fill="#edb698"/>
        </g>
        <g id="Group_11126" data-name="Group 11126" transform="translate(4.739 142.84)">
          <path id="Path_11456" data-name="Path 11456" d="M200.776,201.451a47.83,47.83,0,0,0-38.234,1c-14.251,6.7-19.435,20.31-26.1,33.867-11.51,23.406-30.917,41.4-57.295,43.589-8.345.694-16.609.845-23.752,5.871-9.16,6.445-13.368,17.5-13.761,28.6C40.478,347.048,68.771,371.77,98.4,376.3a90.187,90.187,0,0,0,36.051-2.322c34.495-9.035,60.651-37.72,74.863-70.265q1.19-2.725,2.264-5.5A131.885,131.885,0,0,0,220,239.7c-.343-3.978-.949-7.9-1.609-11.839-1.347-8.017-3.766-16.5-10.05-21.939a21.773,21.773,0,0,0-3.708-2.59A40.7,40.7,0,0,0,200.776,201.451Z" transform="translate(-41.599 -190.541)" fill="#2b3582"/>
          <g id="Group_11123" data-name="Group 11123" transform="translate(110.927 0)">
            <path id="Path_11457" data-name="Path 11457" d="M150.166,204.05a25.7,25.7,0,0,0-11.038,6.865,23.865,23.865,0,0,0-1.938,2.354c-3.843,5.335-5.076,12.139-5.031,18.657l0,.224a37.323,37.323,0,0,0,1.817,11.059,29.529,29.529,0,0,0,5.51,10.139,29.87,29.87,0,0,0,14.314,8.82c5.826,1.727,12.276,2.016,18.041-.112A23.347,23.347,0,0,0,184.306,250.2a39.708,39.708,0,0,0,3.558-19.764c-.4-6.533-1.892-13.376-5.987-18.561-4.672-5.918-11.218-8.622-18.457-9.228A34.1,34.1,0,0,0,150.166,204.05Z" transform="translate(-123.536 -189.076)" fill="#eaab88"/>
            <g id="Group_11122" data-name="Group 11122" transform="translate(16.607 35.971)">
              <path id="Path_11458" data-name="Path 11458" d="M147.4,223.685c.123,1.123-.388,2.1-1.139,2.19s-1.461-.754-1.584-1.877.388-2.1,1.141-2.19S147.28,222.561,147.4,223.685Z" transform="translate(-136.141 -218.875)"/>
              <path id="Path_11459" data-name="Path 11459" d="M162.754,221.468c.123,1.123-.388,2.1-1.141,2.191s-1.461-.755-1.584-1.879.388-2.1,1.141-2.19S162.631,220.344,162.754,221.468Z" transform="translate(-131.227 -219.584)"/>
              <path id="Path_11460" data-name="Path 11460" d="M153.16,220.607a10.187,10.187,0,0,1,1.265,4.235q.2,1.483.393,2.965" transform="translate(-133.42 -219.257)" fill="none" stroke="#eaab88" stroke-miterlimit="10" stroke-width="0.75" style="mix-blend-mode: multiply;isolation: isolate"/>
              <path id="Path_11461" data-name="Path 11461" d="M149.777,229.852a5.557,5.557,0,0,0,3.205,1.616,8.681,8.681,0,0,0,4.867-.246,5.232,5.232,0,0,0,3.249-3.549" transform="translate(-134.503 -216.995)" fill="none" stroke="#000" stroke-miterlimit="10" stroke-width="1"/>
              <path id="Path_11462" data-name="Path 11462" d="M147.23,231.658a4.556,4.556,0,0,1-4.935,4.177,4.612,4.612,0,0,1-4.067-5.067,4.556,4.556,0,0,1,4.935-4.177A4.612,4.612,0,0,1,147.23,231.658Z" transform="translate(-138.207 -217.348)" fill="#eaab88" style="mix-blend-mode: multiply;isolation: isolate"/>
              <path id="Path_11463" data-name="Path 11463" d="M171.918,228.363a4.555,4.555,0,0,1-4.935,4.177,4.612,4.612,0,0,1-4.067-5.067,4.556,4.556,0,0,1,4.935-4.177A4.611,4.611,0,0,1,171.918,228.363Z" transform="translate(-130.304 -218.403)" fill="#eaab88" style="mix-blend-mode: multiply;isolation: isolate"/>
            </g>
            <path id="Path_11464" data-name="Path 11464" d="M152.414,231.418l-9.558,1.671a4.623,4.623,0,0,1-5.3-3.86l-.884-5.327a4.723,4.723,0,0,1,3.76-5.446l9.558-1.673a4.623,4.623,0,0,1,5.3,3.86l.883,5.328A4.723,4.723,0,0,1,152.414,231.418Z" transform="translate(-122.113 -184.531)" fill="none" stroke="#000" stroke-miterlimit="10" stroke-width="1"/>
            <path id="Path_11465" data-name="Path 11465" d="M172.381,227.958l-11.026,1.929a3.875,3.875,0,0,1-4.444-3.234l-1.134-6.836a3.957,3.957,0,0,1,3.15-4.562l11.026-1.93a3.875,3.875,0,0,1,4.444,3.234l1.134,6.836A3.958,3.958,0,0,1,172.381,227.958Z" transform="translate(-115.992 -185.635)" fill="none" stroke="#000" stroke-miterlimit="10" stroke-width="1"/>
            <path id="Path_11466" data-name="Path 11466" d="M151.12,220.582a9.288,9.288,0,0,1,4.917-1.966,1.752,1.752,0,0,1,1.175.211" transform="translate(-117.466 -183.927)" fill="none" stroke="#000" stroke-miterlimit="10" stroke-width="1"/>
            <path id="Path_11467" data-name="Path 11467" d="M132.033,205.815a16.124,16.124,0,0,0-1.7,4.5c-1.228,5.787.28,12.471,3.1,17.545l3.112-.581-.308-14.725,1.993,13.236,18.106-2.581-.517-12.473,2.675,11.964,14.743-2.731-.624-5.261,2.521,5.015,11.982-1.585a26.193,26.193,0,0,0-3.287-12.95,24.94,24.94,0,0,0-5.094-6.341,34.8,34.8,0,0,0-23.315-6.35C147.222,193.3,136.464,197.844,132.033,205.815Z" transform="translate(-124.258 -192.336)" fill="#2b3582"/>
            <path id="Path_11468" data-name="Path 11468" d="M139.365,197.507a66.6,66.6,0,0,0,3.855,24.181" transform="translate(-121.237 -190.681)" fill="none" stroke="#ffbebe" stroke-miterlimit="10" stroke-width="1" style="mix-blend-mode: multiply;isolation: isolate"/>
            <path id="Path_11469" data-name="Path 11469" d="M142.878,198.6c-.2,6.85,1.245,13.625,2.679,20.318" transform="translate(-120.11 -190.331)" fill="none" stroke="#ffbebe" stroke-miterlimit="10" stroke-width="1" style="mix-blend-mode: multiply;isolation: isolate"/>
            <path id="Path_11470" data-name="Path 11470" d="M151.214,196.465a10.323,10.323,0,0,1,2.011,4.017,66,66,0,0,1,2.875,14.846" transform="translate(-117.436 -191.014)" fill="none" stroke="#ffbebe" stroke-miterlimit="10" stroke-width="1" style="mix-blend-mode: multiply;isolation: isolate"/>
            <path id="Path_11471" data-name="Path 11471" d="M154.644,197.258a45.589,45.589,0,0,1,4.119,17.17" transform="translate(-116.338 -190.76)" fill="none" stroke="#ffbebe" stroke-miterlimit="10" stroke-width="1" style="mix-blend-mode: multiply;isolation: isolate"/>
            <path id="Path_11472" data-name="Path 11472" d="M158.883,198.274c.12-.418.742-.194,1.047.11,3.949,3.937,6.1,9.414,7.377,14.912" transform="translate(-114.981 -190.509)" fill="none" stroke="#ffbebe" stroke-miterlimit="10" stroke-width="1" style="mix-blend-mode: multiply;isolation: isolate"/>
            <path id="Path_11473" data-name="Path 11473" d="M163.26,198.626c1.645.721,2.689,2.388,3.486,4.033a31.909,31.909,0,0,1,2.65,8.037" transform="translate(-113.579 -190.322)" fill="none" stroke="#ffbebe" stroke-miterlimit="10" stroke-width="1" style="mix-blend-mode: multiply;isolation: isolate"/>
            <path id="Path_11474" data-name="Path 11474" d="M138.027,230.7a6.261,6.261,0,0,1-6.782,5.741,6.338,6.338,0,0,1-5.589-6.965,6.261,6.261,0,0,1,6.781-5.741A6.338,6.338,0,0,1,138.027,230.7Z" transform="translate(-125.627 -182.295)" fill="#eaab88"/>
            <path id="Path_11475" data-name="Path 11475" d="M131.274,225.967a11.683,11.683,0,0,0-1.773,7.2" transform="translate(-124.399 -181.57)" fill="none" stroke="#eaab88" stroke-miterlimit="10" stroke-width="0.75" style="mix-blend-mode: multiply;isolation: isolate"/>
            <path id="Path_11476" data-name="Path 11476" d="M130.207,228.322q1.127,1.616,2.256,3.232" transform="translate(-124.161 -180.816)" fill="none" stroke="#eaab88" stroke-miterlimit="10" stroke-width="0.75" style="mix-blend-mode: multiply;isolation: isolate"/>
          </g>
          <path id="Path_11477" data-name="Path 11477" d="M174.941,265.459s57.794-1.036,34.358,158.26c0,0-28.141-2.508-33.365-4.783C175.934,418.936,207.761,283.289,174.941,265.459Z" transform="translate(1.087 -168.927)" fill="#d79a73"/>
          <g id="Group_11124" data-name="Group 11124" transform="translate(66.944 88.854)">
            <path id="Path_11478" data-name="Path 11478" d="M108.371,278.343c6.6-8.929,16.573-14.469,27.307-16.986,9.365-2.2,18.936-1.785,28.479-1.432a125.922,125.922,0,0,1,29.163,4.335A47.7,47.7,0,0,1,226.759,321.5L202.387,420.8a180.451,180.451,0,0,1-75.932-21.34,175,175,0,0,1-28.8-19.636,144.238,144.238,0,0,1-3.714-60.368C96.128,305.125,99.946,289.747,108.371,278.343Z" transform="translate(-92.309 -259.643)" fill="#c8615a"/>
            <path id="Path_11479" data-name="Path 11479" d="M123.337,273.4l-2.725-1.185-2.5,1.633.256-3.027-2.283-1.933,2.883-.686,1.084-2.827,1.526,2.6,2.954.185-1.94,2.295Z" transform="translate(-84.696 -257.808)" fill="#a04c4a"/>
            <path id="Path_11480" data-name="Path 11480" d="M179.661,280.488l-2.724-1.185-2.5,1.633.256-3.027-2.283-1.933,2.883-.686,1.084-2.827,1.526,2.6,2.954.185-1.94,2.295Z" transform="translate(-66.665 -255.539)" fill="#a04c4a"/>
            <path id="Path_11481" data-name="Path 11481" d="M135.69,342.5l-2.725-1.186-2.5,1.633.256-3.027-2.283-1.933,2.883-.686,1.084-2.827,1.526,2.6,2.954.185-1.94,2.295Z" transform="translate(-80.742 -235.686)" fill="#a04c4a"/>
            <path id="Path_11482" data-name="Path 11482" d="M175.883,338.046l-2.725-1.185-2.5,1.633.256-3.027-2.283-1.933,2.883-.686,1.084-2.827,1.526,2.6,2.954.185-1.94,2.295Z" transform="translate(-67.875 -237.113)" fill="#a04c4a"/>
            <path id="Path_11483" data-name="Path 11483" d="M159.272,290.11l-1.388-.6-1.271.832.13-1.542-1.163-.985,1.469-.349.552-1.441.777,1.326,1.5.095-.988,1.169Z" transform="translate(-72.054 -251.199)" fill="#a04c4a"/>
            <path id="Path_11484" data-name="Path 11484" d="M172.342,318.029l-1.388-.6-1.271.832.13-1.542-1.163-.985,1.469-.349.552-1.441.777,1.326,1.5.095-.988,1.169Z" transform="translate(-67.87 -242.261)" fill="#a04c4a"/>
            <path id="Path_11485" data-name="Path 11485" d="M111.043,346.689l-1.388-.6-1.271.832.13-1.542-1.163-.985,1.469-.349.552-1.441.777,1.326,1.5.094-.988,1.169Z" transform="translate(-87.494 -233.086)" fill="#a04c4a"/>
            <path id="Path_11486" data-name="Path 11486" d="M170.459,371.928l-1.388-.6-1.271.832.13-1.542-1.163-.985,1.469-.349.552-1.44.777,1.326,1.5.095-.988,1.169Z" transform="translate(-68.473 -225.006)" fill="#a04c4a"/>
            <path id="Path_11487" data-name="Path 11487" d="M119.89,286.214l-1.388-.6-1.271.832.13-1.542-1.163-.985,1.469-.349.552-1.44.777,1.326,1.5.094-.988,1.169Z" transform="translate(-84.662 -252.446)" fill="#a04c4a"/>
            <path id="Path_11488" data-name="Path 11488" d="M121.759,310.192l-2.725-1.185-2.5,1.633.256-3.027-2.283-1.933,2.883-.686,1.084-2.827,1.526,2.6,2.954.185-1.94,2.295Z" transform="translate(-85.201 -246.03)" fill="#a04c4a"/>
            <path id="Path_11489" data-name="Path 11489" d="M139.769,284.895l-3.542-5.12-6.115.094,3.647-5.041-1.976-5.943,5.8,2,4.893-3.767-.065,6.28,5,3.615-5.836,1.877Z" transform="translate(-80.207 -257.249)" fill="#a04c4a"/>
            <path id="Path_11490" data-name="Path 11490" d="M160.643,366.31l-3.542-5.12-6.115.094,3.647-5.041-1.976-5.943,5.8,2,4.893-3.767-.065,6.28,5,3.615-5.836,1.877Z" transform="translate(-73.525 -231.186)" fill="#a04c4a"/>
            <path id="Path_11491" data-name="Path 11491" d="M181.285,308.891l-3.542-5.12-6.115.093,3.647-5.041L173.3,292.88l5.8,2,4.893-3.767-.065,6.28,5,3.615-5.836,1.877Z" transform="translate(-66.917 -249.567)" fill="#a04c4a"/>
            <path id="Path_11492" data-name="Path 11492" d="M151.98,325.83l-4.444-6.424-7.672.117,4.576-6.325-2.48-7.457,7.272,2.515,6.14-4.726-.082,7.879,6.274,4.536-7.322,2.355Z" transform="translate(-77.085 -245.594)" fill="#a04c4a"/>
          </g>
          <g id="Group_11125" data-name="Group 11125" transform="translate(129.025 67.625)">
            <path id="Path_11493" data-name="Path 11493" d="M140.7,243.562a21.083,21.083,0,0,1,2.148,11.9,20.77,20.77,0,0,1-3.51,9.337l4.185,5.992a16.358,16.358,0,0,0,28.557-2.912h0a18.844,18.844,0,0,1-2.785-10.956,18.655,18.655,0,0,1,3.218-9.4Z" transform="translate(-139.336 -243.562)" fill="#eaab88"/>
            <path id="Path_11494" data-name="Path 11494" d="M144.562,246.168s15.587,7.447,26.276.524c0,0-4.21,6.775-3.209,11.692C167.629,258.384,154.154,256.308,144.562,246.168Z" transform="translate(-137.663 -242.728)" fill="#eaab88" style="mix-blend-mode: multiply;isolation: isolate"/>
          </g>
          <path id="Path_11495" data-name="Path 11495" d="M124.654,282.211c13.5,26.2.352,60.187,15.073,85.752a45.847,45.847,0,0,0,23,19.649c17.868,6.908,38.913,2.317,56.2,10.549a7.79,7.79,0,0,1,3.773,3.026c.76,1.442.36,3.567-1.18,4.124,4.521,1.737,1.62,4.977-.58,6.144,1.216-.646,2.418.453,2.762,1.641.47,1.626-.858,3.083-2.172,3.791-3.3,1.785-7.2,1.659-10.808,1.377-14.113-1.108-28.329-1.875-42.339-4.029-13.915-2.141-27.724-5.67-40.536-11.743q-3.178-1.5-6.256-3.216c-9.508-5.29-18.168-12.917-23.877-22.43-6.121-10.2-7.624-22.376-7.893-34.127-.036-1.551-.055-3.1-.071-4.654-.187-18.141,2.041-38.907,11.455-54.652,2.9-4.849,8.375-12.715,14.943-9.972C119.978,275.041,122.82,278.652,124.654,282.211Z" transform="translate(-26.187 -166.553)" fill="#eaab88"/>
        </g>
        <g id="Group_11128" data-name="Group 11128" transform="translate(251.107 149.65)">
          <g id="Group_11127" data-name="Group 11127" transform="translate(56.803)">
            <path id="Path_11496" data-name="Path 11496" d="M362.739,231.56c-4.448-10.7-6.655-16.066-8.446-18.88a33.025,33.025,0,0,0-27.878-15.18c-11.4.2-21.737,6.4-32.278,10.869-5.714,2.422-12.566,4.273-17.8.894a10.31,10.31,0,0,0,10.413,8.145,27.723,27.723,0,0,1-6.573,6.317c-2.62,1.818-5.82,3.24-8.89,2.457-.64,16.466,7.088,33.253,20.346,42.536s30.787,11.484,46.078,6.484a36.862,36.862,0,0,0,11.655-6c-.986-1.793-2.087-3.968-3.073-5.761.822-.034,1.411.758,2.058,1.281a7.293,7.293,0,0,0,2.873,1.189,48.557,48.557,0,0,0,6.276,1.3,24.615,24.615,0,0,0,17.023-4.415,6.138,6.138,0,0,1-2.481-1.009,23.51,23.51,0,0,1-6.519-7.156,11.158,11.158,0,0,0,10.418,2.178,13.831,13.831,0,0,0,8.216-7.158c-4.405-.4-10.865-1.787-15.546-6.829C366.129,240.148,365.272,237.657,362.739,231.56Z" transform="translate(-271.251 -197.495)" fill="#150e42"/>
            <path id="Path_11497" data-name="Path 11497" d="M327.784,262.454a23.84,23.84,0,0,1-18.789-.36c-10.516-4.643-14.861-14.826-14.826-25.471a42.828,42.828,0,0,1,5.123-20.017c3.24-5.937,8.553-12.256,15.044-14.33,7.626-2.441,16.657.239,22.432,5.749a30.077,30.077,0,0,1,7.743,12.07C349.611,235.195,342.771,256.2,327.784,262.454Z" transform="translate(-263.915 -196.254)" fill="#d79a73"/>
            <path id="Path_11498" data-name="Path 11498" d="M318.232,223.353c-.294,1.274.158,2.475,1.011,2.684s1.783-.656,2.078-1.93-.158-2.475-1.011-2.682S318.527,222.079,318.232,223.353Z" transform="translate(-256.24 -189.844)"/>
            <path id="Path_11499" data-name="Path 11499" d="M301.068,218.611c-.3,1.273.157,2.474,1.01,2.683s1.784-.656,2.078-1.93-.157-2.474-1.01-2.682S301.362,217.337,301.068,218.611Z" transform="translate(-261.735 -191.363)"/>
            <path id="Path_11500" data-name="Path 11500" d="M311.888,218.938a11.715,11.715,0,0,0-2.034,4.685q-.43,1.675-.858,3.35" transform="translate(-259.168 -190.63)" fill="none" stroke="#eaab88" stroke-miterlimit="10" stroke-width="0.75" style="mix-blend-mode: multiply;isolation: isolate"/>
            <path id="Path_11501" data-name="Path 11501" d="M316.966,230.451a6.393,6.393,0,0,1-3.906,1.393,10.062,10.062,0,0,1-5.562-.983,6.118,6.118,0,0,1-3.249-4.549" transform="translate(-260.687 -188.27)" fill="none" stroke="#000" stroke-miterlimit="10" stroke-width="1"/>
            <path id="Path_11502" data-name="Path 11502" d="M319.174,232.665a5.238,5.238,0,1,0,5.369-5.237A5.316,5.316,0,0,0,319.174,232.665Z" transform="translate(-255.91 -187.912)" fill="#edb698" style="mix-blend-mode: multiply;isolation: isolate"/>
            <path id="Path_11503" data-name="Path 11503" d="M295.412,230.826a4.854,4.854,0,0,1-1.244-.191,41.8,41.8,0,0,1,1.4-10.56.851.851,0,0,1,.116,0,5.379,5.379,0,0,1-.271,10.75Z" transform="translate(-263.915 -190.266)" fill="#edb698" style="mix-blend-mode: multiply;isolation: isolate"/>
            <path id="Path_11504" data-name="Path 11504" d="M315.95,200.369c-5.213,1.857-9.43,5.785-14.053,8.882a49.755,49.755,0,0,1-14.17,6.552,40.39,40.39,0,0,0,14.342,3.683,21.737,21.737,0,0,0,14.04-4.053,13.394,13.394,0,0,1-4.224,3.809c4.49,2.037,10.025.384,13.517-3.159,2.766-2.807,6.783-9.736,5.189-13.967C328.858,197.52,319.269,199.186,315.95,200.369Z" transform="translate(-265.977 -196.989)" fill="#150e42"/>
            <path id="Path_11505" data-name="Path 11505" d="M319.75,200.61s22.119,4.867,20.308,30.179C340.058,230.789,319.936,227.852,319.75,200.61Z" transform="translate(-255.725 -196.497)" fill="#150e42"/>
            <path id="Path_11506" data-name="Path 11506" d="M300.767,215.938a58.441,58.441,0,0,1-28.092,13.921" transform="translate(-270.795 -191.59)" fill="none" stroke="#c8615a" stroke-miterlimit="10" stroke-width="1" opacity="0.5" style="mix-blend-mode: multiply;isolation: isolate"/>
            <path id="Path_11507" data-name="Path 11507" d="M296.407,225.613a42.058,42.058,0,0,1-18.924,12.6" transform="translate(-269.256 -188.493)" fill="none" stroke="#c8615a" stroke-miterlimit="10" stroke-width="1" opacity="0.5" style="mix-blend-mode: multiply;isolation: isolate"/>
            <path id="Path_11508" data-name="Path 11508" d="M295.661,235.966A19.461,19.461,0,0,1,285,245.954" transform="translate(-266.851 -185.179)" fill="none" stroke="#c8615a" stroke-miterlimit="10" stroke-width="1" opacity="0.5" style="mix-blend-mode: multiply;isolation: isolate"/>
            <path id="Path_11509" data-name="Path 11509" d="M331.985,239.748a19.628,19.628,0,0,0,1.912,3.747c2.165,3.076,5.869,4.648,9.522,5.229" transform="translate(-251.808 -183.968)" fill="none" stroke="#c8615a" stroke-miterlimit="10" stroke-width="1" opacity="0.5" style="mix-blend-mode: multiply;isolation: isolate"/>
            <path id="Path_11510" data-name="Path 11510" d="M336.422,226.362a23.52,23.52,0,0,0,17.877,13.9" transform="translate(-250.388 -188.253)" fill="none" stroke="#c8615a" stroke-miterlimit="10" stroke-width="1" opacity="0.5" style="mix-blend-mode: multiply;isolation: isolate"/>
            <path id="Path_11511" data-name="Path 11511" d="M334.369,232.853a15.129,15.129,0,0,0,7.593,7.179" transform="translate(-251.045 -186.175)" fill="none" stroke="#c8615a" stroke-miterlimit="10" stroke-width="1" opacity="0.5" style="mix-blend-mode: multiply;isolation: isolate"/>
          </g>
          <path id="Path_11512" data-name="Path 11512" d="M228.223,428.558c.688-32.116,6.672-83.7,36.9-135.237a255.966,255.966,0,0,1,25.48-35.937,107.517,107.517,0,0,1,81.983,11.674,518.4,518.4,0,0,0-32.993,156.385C324.52,426.906,308.664,428.019,228.223,428.558Z" transform="translate(-228.223 -179.426)" fill="#fdf53f"/>
          <path id="Path_11513" data-name="Path 11513" d="M305.36,255.918a41.947,41.947,0,0,0-15.143,3.675,126.68,126.68,0,0,0-13.372,7.2,18.907,18.907,0,0,1,8.576,3.448,19.2,19.2,0,0,1,4.409,4.521,15.413,15.413,0,0,0-6.742,5.358,16.092,16.092,0,0,0-2.91,8.523l16.129-1.292q6.5-13.293,12.989-26.585a42.514,42.514,0,0,0,2.121-4.462A30.467,30.467,0,0,0,305.36,255.918Z" transform="translate(-212.658 -178.798)" fill="#d8a821"/>
          <path id="Path_11514" data-name="Path 11514" d="M322.794,262.283a44.759,44.759,0,0,1,5.523,14.939,134.32,134.32,0,0,1,1.688,15.407,19.185,19.185,0,0,0-7.587-5.36,18.488,18.488,0,0,0-6.117-1.216,16.211,16.211,0,0,1-.543,8.738,15.749,15.749,0,0,1-5.242,7.251q-4-7.222-8-14.442l14.157-25.948a42.04,42.04,0,0,1,2.409-4.3A32.028,32.028,0,0,1,322.794,262.283Z" transform="translate(-204.439 -178.334)" fill="#d8a821"/>
          <path id="Path_11515" data-name="Path 11515" d="M305.27,244.526a16.749,16.749,0,0,1,.783,8.322,16.527,16.527,0,0,1-3.749,8.094,25.556,25.556,0,0,0-8.916,6.976,30.181,30.181,0,0,0-6.289,18.731,12.045,12.045,0,0,0,1.633,6.272c2.731,4.342,8.257,4.949,12.818,4.152,5.15-.9,8.393-3.6,12.255-6.914a43.4,43.4,0,0,0,14.973-28.919,14.259,14.259,0,0,1,2.3-13.063C328.129,248.267,324.867,248.2,305.27,244.526Z" transform="translate(-209.376 -182.438)" fill="#d79a73"/>
          <path id="Path_11516" data-name="Path 11516" d="M342.247,265.391s31.806,21,38.292,50.814c0,0-33.275,23.478-57.54,11.448C323,327.654,329.546,287.883,342.247,265.391Z" transform="translate(-197.883 -175.759)" fill="#fdf53f"/>
          <path id="Path_11517" data-name="Path 11517" d="M328.671,313.049c7.593,1.688,15.572.619,22.981-1.789s14.342-6.112,21.234-9.8" transform="translate(-196.067 -164.211)" fill="none" stroke="#d8a821" stroke-miterlimit="10" stroke-width="1"/>
          <path id="Path_11518" data-name="Path 11518" d="M367.034,308.181s12,42.578-4.6,95.577l-27.209,3.278s20.247-73.117,1.512-89.7C336.734,317.336,357.444,313.855,367.034,308.181Z" transform="translate(-193.97 -162.061)" fill="#d79a73"/>
          <path id="Path_11519" data-name="Path 11519" d="M301.085,244.526s8.877,8.832,23.535,3.644l-24.451,9.748S303.69,252.474,301.085,244.526Z" transform="translate(-205.191 -182.438)" fill="#edb698" style="mix-blend-mode: multiply;isolation: isolate"/>
        </g>
      </g>
    </g>
  </g>
</svg>
