<svg xmlns="http://www.w3.org/2000/svg" width="17.903" height="21.685" viewBox="0 0 17.903 21.685">
  <path id="path2" d="M22.969,15.32h1.8c.683-.017,1.273.384,1.184,1.062l-.587,4.466c-.1.774,1.061.975,1.447,0,.236-.6,1.383-.341,1.134.59a2.7,2.7,0,0,1-2.11,1.619h-.719a1.931,1.931,0,0,1-1.829-2.208l.5-3.591L22.7,16.932a.82.82,0,0,1,.265-1.612ZM24.975,11.4a1.4,1.4,0,1,1-1.419,1.4A1.409,1.409,0,0,1,24.975,11.4Zm-6.86-2.616c-1.979,0-3.011,4.836-3.011,10.843s1.032,10.841,3.011,10.841H32.139c1.1,0,1.207-1.957.023-1.957H21.146a1.394,1.394,0,1,1,0-2.774h10.2c1.051,0,1.635-1.327,1.635-2.553l0-11.749a2.493,2.493,0,0,0-2.309-2.651Z" transform="translate(-15.104 -8.788)" fill="#2d80b5"/>
</svg>
