<svg id="settings" xmlns="http://www.w3.org/2000/svg" width="20" height="20" viewBox="0 0 20 20">
  <g id="Group_10832" data-name="Group 10832" transform="translate(5.958 10.586)">
    <g id="Group_10831" data-name="Group 10831">
      <path id="Path_10786" data-name="Path 10786" d="M159.468,271a2.978,2.978,0,0,1-2.909,2.344,2.934,2.934,0,0,1-2.87-2.344h-1.172a4.1,4.1,0,0,0,8.124,0Z" transform="translate(-152.516 -271)" fill="#2d80b5"/>
    </g>
  </g>
  <g id="Group_10834" data-name="Group 10834" transform="translate(0 10.586)">
    <g id="Group_10833" data-name="Group 10833">
      <path id="Path_10787" data-name="Path 10787" d="M15.253,271a5.266,5.266,0,0,1-10.467,0H0v.586a.586.586,0,0,0,.4.556l2.411.787a8.232,8.232,0,0,0,.323.79l-1.112,2.235a.586.586,0,0,0,.11.675l1.652,1.652a.586.586,0,0,0,.675.11l2.235-1.112a8.253,8.253,0,0,0,.79.323l.787,2.411a.587.587,0,0,0,.556.4h2.383a.587.587,0,0,0,.556-.4l.787-2.411a8.244,8.244,0,0,0,.79-.323l2.235,1.112a.585.585,0,0,0,.675-.11l1.652-1.652a.586.586,0,0,0,.11-.675L16.9,273.719a8.232,8.232,0,0,0,.323-.79l2.372-.787a.586.586,0,0,0,.4-.556V271Z" transform="translate(0 -271)" fill="#2d80b5"/>
    </g>
  </g>
  <g id="Group_10836" data-name="Group 10836" transform="translate(8.35 10.586)">
    <g id="Group_10835" data-name="Group 10835">
      <path id="Path_10788" data-name="Path 10788" d="M213.763,271a1.755,1.755,0,0,0,1.65,1.172A1.806,1.806,0,0,0,217.1,271Z" transform="translate(-213.763 -271)" fill="#2d80b5"/>
    </g>
  </g>
  <g id="Group_10838" data-name="Group 10838" transform="translate(7.656)">
    <g id="Group_10837" data-name="Group 10837">
      <path id="Path_10789" data-name="Path 10789" d="M198.344,0a2.344,2.344,0,1,0,0,4.687,2.38,2.38,0,0,0,2.383-2.344A2.38,2.38,0,0,0,198.344,0Z" transform="translate(-196)" fill="#2d80b5"/>
    </g>
  </g>
  <g id="Group_10840" data-name="Group 10840" transform="translate(13.555)">
    <g id="Group_10839" data-name="Group 10839">
      <path id="Path_10790" data-name="Path 10790" d="M349.344,0a2.344,2.344,0,1,0,2.344,2.344A2.346,2.346,0,0,0,349.344,0Z" transform="translate(-347)" fill="#2d80b5"/>
    </g>
  </g>
  <g id="Group_10842" data-name="Group 10842" transform="translate(1.797)">
    <g id="Group_10841" data-name="Group 10841">
      <path id="Path_10791" data-name="Path 10791" d="M48.344,0a2.344,2.344,0,1,0,2.344,2.344A2.346,2.346,0,0,0,48.344,0Z" transform="translate(-46)" fill="#2d80b5"/>
    </g>
  </g>
  <g id="Group_10844" data-name="Group 10844" transform="translate(13.179 5.23)">
    <g id="Group_10843" data-name="Group 10843">
      <path id="Path_10792" data-name="Path 10792" d="M342.094,133.883a3.489,3.489,0,0,1-3.991.006,4.268,4.268,0,0,0-.728.514,5.353,5.353,0,0,1,2.1,3.665H344.2v-.586A4.151,4.151,0,0,0,342.094,133.883Z" transform="translate(-337.376 -133.883)" fill="#2d80b5"/>
    </g>
  </g>
  <g id="Group_10846" data-name="Group 10846" transform="translate(5.94 5.859)">
    <g id="Group_10845" data-name="Group 10845">
      <path id="Path_10793" data-name="Path 10793" d="M156.129,150a4.142,4.142,0,0,0-4.06,3.555h8.159A4.182,4.182,0,0,0,156.129,150Z" transform="translate(-152.069 -150)" fill="#2d80b5"/>
    </g>
  </g>
  <g id="Group_10848" data-name="Group 10848" transform="translate(0 5.23)">
    <g id="Group_10847" data-name="Group 10847">
      <path id="Path_10794" data-name="Path 10794" d="M6.133,133.889a3.489,3.489,0,0,1-3.991-.006A4.187,4.187,0,0,0,0,137.481v.586H4.762a5.353,5.353,0,0,1,2.1-3.665A4.268,4.268,0,0,0,6.133,133.889Z" transform="translate(0 -133.883)" fill="#2d80b5"/>
    </g>
  </g>
</svg>
